<?xml version="1.0" standalone="no"?>
<!DOCTYPE svg PUBLIC "-//W3C//DTD SVG 20010904//EN"
 "http://www.w3.org/TR/2001/REC-SVG-20010904/DTD/svg10.dtd">
<svg version="1.0" xmlns="http://www.w3.org/2000/svg"
 width="512.000000pt" height="512.000000pt" viewBox="0 0 512.000000 512.000000"
 preserveAspectRatio="xMidYMid meet">
<metadata>
Created by potrace 1.14, written by Peter Selinger 2001-2017
</metadata>
<g transform="translate(0.000000,512.000000) scale(0.100000,-0.100000)"
fill="#000000" stroke="none">
<path d="M1922 3377 l-951 -752 -1 -852 0 -853 570 0 570 0 0 445 0 445 -145
0 -145 0 0 -305 0 -305 -280 0 -280 0 0 643 1 642 793 627 c437 345 799 629
805 630 5 2 224 -186 486 -417 l475 -420 0 -853 0 -852 -282 2 -283 3 -3 693
-2 692 -140 0 -140 0 0 -835 0 -835 570 0 570 0 0 1058 0 1057 -577 510 c-317
281 -595 526 -618 547 l-41 36 -952 -751z"/>
<path d="M2400 1560 l0 -640 140 0 140 0 0 640 0 640 -140 0 -140 0 0 -640z"/>
</g>
</svg>
