<?xml version="1.0" standalone="no"?>
<!DOCTYPE svg PUBLIC "-//W3C//DTD SVG 20010904//EN"
 "http://www.w3.org/TR/2001/REC-SVG-20010904/DTD/svg10.dtd">
<svg version="1.0" xmlns="http://www.w3.org/2000/svg"
 width="2000.000000pt" height="2000.000000pt" viewBox="0 0 2000.000000 2000.000000"
 preserveAspectRatio="xMidYMid meet">
<metadata>
Created by potrace 1.14, written by Peter Selinger 2001-2017
</metadata>
<g transform="translate(0.000000,2000.000000) scale(0.100000,-0.100000)"
fill="#000000" stroke="none">
<path d="M6077 13886 c-2392 -2009 -4358 -3663 -4370 -3674 l-21 -22 977 0
977 0 0 -2707 0 -2708 -303 -152 c-952 -479 -1919 -1091 -2652 -1678 -153
-123 -398 -332 -485 -415 l-55 -52 70 38 c39 20 167 89 285 152 1598 858 3754
1635 5790 2085 1364 302 2574 464 4055 542 651 34 1996 20 2390 -25 50 -6 189
-15 310 -20 228 -9 735 -50 935 -75 63 -8 293 -37 510 -64 1528 -191 3367
-611 5241 -1197 114 -35 211 -64 215 -64 13 0 -95 68 -346 215 -712 419 -1415
770 -2182 1090 l-188 78 0 2479 0 2478 955 0 c525 0 955 4 955 8 0 4 -26 33
-57 64 -81 80 -8635 7278 -8648 7277 -5 0 -1967 -1644 -4358 -3653z m3947
1817 c-8 -21 -72 -177 -141 -348 -1739 -4298 -3498 -8640 -3540 -8740 -273
-642 -541 -942 -944 -1059 -135 -39 -371 -66 -576 -66 l-103 0 0 2473 c0 1515
4 2536 10 2637 6 91 17 269 25 395 8 127 17 307 21 401 l7 170 111 89 c200
161 2389 1903 3331 2651 506 402 1118 889 1360 1082 242 193 443 351 448 351
4 1 0 -16 -9 -36z m3739 -2226 l2437 -1868 0 -3001 c0 -2853 -1 -3000 -17
-2993 -133 50 -837 257 -1180 345 -38 9 -50 21 -117 114 -153 210 -355 577
-496 901 -221 509 -842 2028 -2283 5580 -776 1913 -1086 2675 -1222 3000 -37
88 -70 166 -72 173 -3 8 111 -76 253 -185 142 -109 1356 -1039 2697 -2066z
m-3669 -169 c8 -13 18 -36 22 -53 4 -16 299 -828 655 -1804 357 -975 649
-1786 649 -1802 0 -18 -7 -32 -19 -39 -30 -16 -2713 -14 -2729 2 -7 7 -12 26
-12 43 0 17 297 823 660 1791 363 967 668 1779 677 1803 28 77 69 102 97 59z
m1612 -4457 c21 -13 39 -39 58 -82 72 -166 932 -2394 925 -2397 -4 -2 -97 6
-206 17 -754 77 -1745 91 -2588 36 -773 -50 -1733 -183 -2394 -331 -85 -18
-159 -34 -164 -34 -25 0 55 348 128 557 24 70 229 596 454 1168 316 801 416
1045 436 1063 l26 22 1647 0 c1596 0 1648 -1 1678 -19z"/>
</g>
</svg>
